<svg width="44" height="41" viewBox="0 0 44 41" fill="none" xmlns="http://www.w3.org/2000/svg">
<circle cx="29" cy="26" r="14.5" fill="white" stroke="#111111"/>
<path d="M18.8363 15.3088C18.033 15.4054 17.0636 15.5093 15.9934 15.6081C15.5456 15.6494 15.0802 15.6898 14.6019 15.7285C13.9377 15.7822 13.2487 15.8325 12.5476 15.8769C11.6666 15.9327 10.7667 15.9792 9.87314 16.0117C9.26271 16.0339 8.6553 16.0495 8.05902 16.0571C7.36364 16.0659 6.68338 16.0637 6.03114 16.0481C3.91133 15.9973 2.08724 15.8048 1.00035 15.3872M18.8363 15.3088C17.0052 13.0637 14.7111 12.0831 12.343 11.8714C11.3147 11.7795 10.2723 11.8326 9.24794 11.9902C8.33408 12.1307 7.43449 12.3544 6.57178 12.6324C6.10217 12.7837 5.6435 12.9511 5.1994 13.1299C4.71085 13.3267 4.23993 13.5373 3.79152 13.7556C2.70643 14.2838 1.7531 14.8569 1.00035 15.3872M18.8363 15.3088C18.761 15.5059 18.6711 15.7078 18.5662 15.9115M1.00035 15.3872C5.41065 18.4637 8.91107 19.6221 11.6129 19.6949C12.9729 19.7316 14.1305 19.4933 15.1 19.0861M15.1 19.0861C16.2523 18.044 17.4128 16.9803 18.5662 15.9115M15.1 19.0861C16.8228 18.3625 17.9516 17.1058 18.5662 15.9115M18.5662 15.9115C18.9636 15.5434 19.36 15.1746 19.755 14.806M19.755 14.806C19.6889 14.8339 19.6233 14.8593 19.5585 14.8825C13.2302 12.2711 19.5043 3.69203 19.8622 3.20672C21.8139 6.13761 22.5228 8.44568 22.5322 10.2156C22.5376 11.2193 22.318 12.05 21.9726 12.723M19.755 14.806C20.5009 14.1099 21.2415 13.414 21.9726 12.723M19.755 14.806C20.5457 14.4729 21.4201 13.7996 21.9726 12.723" stroke="#111111" stroke-linecap="round"/>
<path d="M29.56 27.3018V34H26.523V27.3018H24V24.5858H26.523V23.5976C26.523 19.929 28.0357 18 31.2362 18C32.2174 18 32.4627 18.1598 33 18.2899V20.9763C32.3984 20.8698 32.2291 20.8107 31.6042 20.8107C30.8624 20.8107 30.4653 21.0237 30.1032 21.4438C29.7411 21.8639 29.56 22.5917 29.56 23.6331V24.5917H33L32.0772 27.3077H29.56V27.3018Z" stroke="black" stroke-linejoin="round"/>
</svg>
