<svg width="30" height="30" viewBox="0 0 30 30" fill="none" xmlns="http://www.w3.org/2000/svg">
<circle cx="15" cy="15" r="14.5" fill="white" stroke="#111111"/>
<path d="M20.3257 23H9.67433C8.20246 23 7 21.7975 7 20.3257V9.67433C7 8.20246 8.20246 7 9.67433 7H20.3257C21.7975 7 23 8.20246 23 9.67433V20.3257C23 21.8041 21.8041 23 20.3257 23Z" stroke="black"/>
<path d="M12.0989 17.9076C12.8743 18.6829 13.9059 19.11 15.0033 19.11C16.1006 19.11 17.1256 18.6829 17.9076 17.9076C18.6829 17.1322 19.11 16.1006 19.11 15.0033C19.11 13.9059 18.6829 12.8743 17.9076 12.0989C17.1322 11.3236 16.1006 10.8965 15.0033 10.8965C13.9059 10.8965 12.8743 11.3236 12.0989 12.0989C11.3236 12.8743 10.8965 13.9059 10.8965 15.0033C10.8965 16.1006 11.3236 17.1322 12.0989 17.9076Z" stroke="black"/>
<path d="M19.9106 10.7619C20.3461 10.7619 20.6991 10.4088 20.6991 9.97334C20.6991 9.53785 20.3461 9.18481 19.9106 9.18481C19.4751 9.18481 19.1221 9.53785 19.1221 9.97334C19.1221 10.4088 19.4751 10.7619 19.9106 10.7619Z" stroke="black"/>
</svg>
