<svg width="34" height="34" viewBox="0 0 34 34" fill="none" xmlns="http://www.w3.org/2000/svg">
<rect x="0.5" y="0.5" width="33" height="33" rx="16.5" fill="white" stroke="#111111"/>
<path d="M15 6.9502C19.4459 6.9502 23.0498 10.5541 23.0498 15C23.0498 16.6694 22.5401 18.2191 21.6699 19.5049C22.3354 19.4542 23.0956 19.6261 23.8154 19.9424C24.5729 20.2753 25.2901 20.768 25.8105 21.3291C26.1732 21.7201 26.694 22.4141 26.8789 23.2402C27.0647 24.0709 26.91 25.0312 25.9287 25.9414C24.9475 26.8514 23.9784 26.9332 23.1641 26.6855C22.3541 26.4391 21.7005 25.8675 21.3379 25.4766C20.8476 24.9478 20.4317 24.2491 20.1553 23.5176C19.8936 22.8252 19.7574 22.1002 19.8027 21.458C18.4618 22.4569 16.8006 23.0498 15 23.0498C10.5541 23.0498 6.9502 19.4459 6.9502 15C6.9502 10.5541 10.5541 6.9502 15 6.9502ZM22.8838 20.5166C21.989 20.2582 21.3527 20.3648 21.0322 20.6621C20.7118 20.9594 20.5576 21.5855 20.748 22.4971C20.9321 23.3783 21.4008 24.2945 21.9619 24.8994C22.2722 25.2339 22.7879 25.6697 23.373 25.8477C23.6327 25.9266 23.9265 25.9622 24.25 25.8906C24.5735 25.819 24.9307 25.639 25.3164 25.2812C25.702 24.9236 25.9081 24.5808 26.0039 24.2637C26.0996 23.9465 26.0866 23.6506 26.0273 23.3857C25.8938 22.7887 25.4978 22.2418 25.1875 21.9072C24.6265 21.3024 23.7486 20.7664 22.8838 20.5166ZM15 7.84961C11.0512 7.84961 7.84961 11.0512 7.84961 15C7.84961 18.9488 11.0512 22.1504 15 22.1504C18.9488 22.1504 22.1504 18.9488 22.1504 15C22.1504 11.0512 18.9488 7.84961 15 7.84961Z" fill="#111111" stroke="#111111" stroke-width="0.1"/>
</svg>
