<svg width="35" height="34" viewBox="0 0 35 34" fill="none" xmlns="http://www.w3.org/2000/svg">
<circle cx="17.9497" cy="17" r="16.5" fill="white" stroke="#111111"/>
<path fill-rule="evenodd" clip-rule="evenodd" d="M20.4622 26.357C20.5077 26.3335 20.5533 26.3095 20.5988 26.285C22.6247 25.1943 24.5998 23.1064 26.0023 20.6229C28.6902 15.8632 28.2574 10.5297 25.0357 8.71029C22.9395 7.52656 20.1793 8.1219 17.7661 9.99321C15.3529 8.1219 12.5927 7.52656 10.4966 8.71029C7.27478 10.5297 6.84201 15.8632 9.52994 20.6229C10.9325 23.1064 12.9075 25.1943 14.9334 26.285C14.9789 26.3095 15.0245 26.3335 15.0701 26.357C15.9395 26.8053 16.8162 27.0678 17.659 27.0971C17.6946 27.0992 17.7303 27.1 17.7661 27.0996C17.8019 27.1 17.8376 27.0992 17.8732 27.0971C18.716 27.0678 19.5927 26.8053 20.4622 26.357ZM17.1533 10.7835C17.514 11.0631 18.0182 11.0631 18.3789 10.7835C20.6276 9.03968 22.9417 8.67622 24.5439 9.58103C25.7793 10.2787 26.5811 11.7066 26.7384 13.6449C26.8951 15.5763 26.3905 17.9019 25.1315 20.1311C24.1681 21.8372 22.9268 23.3305 21.6134 24.3985C20.2867 25.4772 18.9675 26.0585 17.8385 26.0977L17.8275 26.0981L17.8166 26.0987C17.8029 26.0995 17.7899 26.0998 17.7774 26.0997L17.7661 26.0995L17.7549 26.0997C17.7424 26.0998 17.7293 26.0995 17.7157 26.0987L17.7047 26.0981L17.6937 26.0977C16.5647 26.0585 15.2455 25.4772 13.9189 24.3985C12.6055 23.3305 11.3641 21.8372 10.4007 20.1311C9.14178 17.9019 8.63711 15.5763 8.79384 13.6449C8.95111 11.7066 9.75296 10.2787 10.9883 9.58103C12.5905 8.67622 14.9046 9.03968 17.1533 10.7835Z" fill="#111111"/>
</svg>
