<svg width="35" height="34" viewBox="0 0 35 34" fill="none" xmlns="http://www.w3.org/2000/svg">
<circle cx="17.6167" cy="17" r="16.5" fill="white" stroke="#111111"/>
<path d="M21.4113 14.0996C21.4267 13.9043 21.4331 13.7209 21.4331 13.5555C21.4331 13.4061 21.4277 13.2539 21.4171 13.0996H13.4491C13.4385 13.2539 13.4331 13.4061 13.4331 13.5555C13.4331 13.7209 13.4395 13.9043 13.455 14.0996H21.4113Z" fill="#111111"/>
<path fill-rule="evenodd" clip-rule="evenodd" d="M21.4113 14.0996C21.4267 13.9043 21.4331 13.7209 21.4331 13.5555C21.4331 13.4061 21.4277 13.2539 21.4171 13.0996C21.3267 11.78 20.8567 10.3076 20.1322 9.13414C19.2989 7.78436 18.3122 7.09961 17.4331 7.09961C16.554 7.09961 15.5674 7.78436 14.734 9.13414C14.0095 10.3076 13.5395 11.78 13.4491 13.0996C13.4385 13.2539 13.4331 13.4061 13.4331 13.5555C13.4331 13.7209 13.4395 13.9043 13.455 14.0996H12.4522H8.43316L8.43311 15.6451C8.43311 21.1455 12.3608 26.0996 17.4331 26.0996C22.5054 26.0996 26.4331 21.1455 26.4331 15.6451V14.0996H22.414H21.4113ZM27.4331 13.0996H22.4192C22.2286 9.92599 20.1038 6.09961 17.4331 6.09961C14.7624 6.09961 12.6376 9.92599 12.447 13.0996H7.43321L7.43311 15.6451C7.43311 21.9712 11.9103 27.0996 17.4331 27.0996C22.956 27.0996 27.4331 21.9712 27.4331 15.6451V13.0996Z" fill="#111111"/>
</svg>
