<svg width="34" height="34" viewBox="0 0 34 34" fill="none" xmlns="http://www.w3.org/2000/svg">
<circle cx="17" cy="17" r="16.5" fill="white" stroke="#111111"/>
<path fill-rule="evenodd" clip-rule="evenodd" d="M19.5704 9.26363C19.9898 9.9382 20.0996 10.789 20.0996 11.3643C20.0996 12.4077 19.7231 13.6559 19.0981 14.6292C18.4534 15.6332 17.7178 16.0996 17.0996 16.0996C16.4815 16.0996 15.7458 15.6332 15.1011 14.6292C14.4762 13.6559 14.0996 12.4077 14.0996 11.3643C14.0996 10.789 14.2095 9.9382 14.6289 9.26363C15.0021 8.66322 15.6772 8.09961 17.0996 8.09961C18.5221 8.09961 19.1971 8.66322 19.5704 9.26363ZM17.0996 7.09961C20.6196 7.09961 21.0996 10.0408 21.0996 11.3643C21.0996 13.8643 19.3396 17.0996 17.0996 17.0996C14.8596 17.0996 13.0996 13.8643 13.0996 11.3643C13.0996 10.0408 13.5796 7.09961 17.0996 7.09961Z" fill="#111111"/>
<path fill-rule="evenodd" clip-rule="evenodd" d="M17.0996 17.0996C12.5346 17.0996 9.09961 20.7778 9.09961 25.0996V26.0996H25.0996V25.0996C25.0996 20.7778 21.6647 17.0996 17.0996 17.0996ZM8.0997 27.0996L8.09961 25.0996C8.09961 20.129 12.129 16.0996 17.0996 16.0996C22.0702 16.0996 26.0996 20.129 26.0996 25.0996V27.0996H8.0997Z" fill="#111111"/>
</svg>
