<svg width="30" height="30" viewBox="0 0 30 30" fill="none" xmlns="http://www.w3.org/2000/svg">
<circle cx="15" cy="15" r="14.5" fill="white" stroke="#111111"/>
<path d="M18.3207 7.60865L17.9298 7H15.5642V12.4818L15.5561 17.8364C15.5602 17.8762 15.5642 17.9199 15.5642 17.9597C15.5642 19.3003 14.46 20.3943 13.0979 20.3943C11.7358 20.3943 10.6315 19.3043 10.6315 17.9597C10.6315 16.6191 11.7358 15.5251 13.0979 15.5251C13.38 15.5251 13.654 15.5768 13.9079 15.6643V12.991C13.6459 12.9473 13.3759 12.9234 13.0979 12.9234C10.289 12.9274 8 15.187 8 17.9637C8 20.7404 10.289 23 13.1019 23C15.9148 23 18.2038 20.7404 18.2038 17.9637V11.5947C19.2234 12.6012 20.5412 13.5838 22 13.8981V11.1651C20.4162 10.4729 18.8405 8.42815 18.3207 7.60865Z" stroke="black"/>
</svg>
