<?xml version="1.0" encoding="UTF-8"?><!DOCTYPE svg PUBLIC "-//W3C//DTD SVG 1.1//EN" "http://www.w3.org/Graphics/SVG/1.1/DTD/svg11.dtd"><svg xmlns="http://www.w3.org/2000/svg" xmlns:xlink="http://www.w3.org/1999/xlink"><symbol id="facebook" viewBox="0 0 44 41"><g fill="none">
<circle cx="29" cy="26" r="14.5" fill="white" stroke="#111111"/>
<path d="M18.8363 15.3088C18.033 15.4054 17.0636 15.5093 15.9934 15.6081C15.5456 15.6494 15.0802 15.6898 14.6019 15.7285C13.9377 15.7822 13.2487 15.8325 12.5476 15.8769C11.6666 15.9327 10.7667 15.9792 9.87314 16.0117C9.26271 16.0339 8.6553 16.0495 8.05902 16.0571C7.36364 16.0659 6.68338 16.0637 6.03114 16.0481C3.91133 15.9973 2.08724 15.8048 1.00035 15.3872M18.8363 15.3088C17.0052 13.0637 14.7111 12.0831 12.343 11.8714C11.3147 11.7795 10.2723 11.8326 9.24794 11.9902C8.33408 12.1307 7.43449 12.3544 6.57178 12.6324C6.10217 12.7837 5.6435 12.9511 5.1994 13.1299C4.71085 13.3267 4.23993 13.5373 3.79152 13.7556C2.70643 14.2838 1.7531 14.8569 1.00035 15.3872M18.8363 15.3088C18.761 15.5059 18.6711 15.7078 18.5662 15.9115M1.00035 15.3872C5.41065 18.4637 8.91107 19.6221 11.6129 19.6949C12.9729 19.7316 14.1305 19.4933 15.1 19.0861M15.1 19.0861C16.2523 18.044 17.4128 16.9803 18.5662 15.9115M15.1 19.0861C16.8228 18.3625 17.9516 17.1058 18.5662 15.9115M18.5662 15.9115C18.9636 15.5434 19.36 15.1746 19.755 14.806M19.755 14.806C19.6889 14.8339 19.6233 14.8593 19.5585 14.8825C13.2302 12.2711 19.5043 3.69203 19.8622 3.20672C21.8139 6.13761 22.5228 8.44568 22.5322 10.2156C22.5376 11.2193 22.318 12.05 21.9726 12.723M19.755 14.806C20.5009 14.1099 21.2415 13.414 21.9726 12.723M19.755 14.806C20.5457 14.4729 21.4201 13.7996 21.9726 12.723" stroke="#111111" stroke-linecap="round"/>
<path d="M29.56 27.3018V34H26.523V27.3018H24V24.5858H26.523V23.5976C26.523 19.929 28.0357 18 31.2362 18C32.2174 18 32.4627 18.1598 33 18.2899V20.9763C32.3984 20.8698 32.2291 20.8107 31.6042 20.8107C30.8624 20.8107 30.4653 21.0237 30.1032 21.4438C29.7411 21.8639 29.56 22.5917 29.56 23.6331V24.5917H33L32.0772 27.3077H29.56V27.3018Z" stroke="black" stroke-linejoin="round"/>
</g></symbol><symbol id="instagram" viewBox="0 0 30 30"><g fill="none">
<circle cx="15" cy="15" r="14.5" fill="white" stroke="#111111"/>
<path d="M20.3257 23H9.67433C8.20246 23 7 21.7975 7 20.3257V9.67433C7 8.20246 8.20246 7 9.67433 7H20.3257C21.7975 7 23 8.20246 23 9.67433V20.3257C23 21.8041 21.8041 23 20.3257 23Z" stroke="black"/>
<path d="M12.0989 17.9076C12.8743 18.6829 13.9059 19.11 15.0033 19.11C16.1006 19.11 17.1256 18.6829 17.9076 17.9076C18.6829 17.1322 19.11 16.1006 19.11 15.0033C19.11 13.9059 18.6829 12.8743 17.9076 12.0989C17.1322 11.3236 16.1006 10.8965 15.0033 10.8965C13.9059 10.8965 12.8743 11.3236 12.0989 12.0989C11.3236 12.8743 10.8965 13.9059 10.8965 15.0033C10.8965 16.1006 11.3236 17.1322 12.0989 17.9076Z" stroke="black"/>
<path d="M19.9106 10.7619C20.3461 10.7619 20.6991 10.4088 20.6991 9.97334C20.6991 9.53785 20.3461 9.18481 19.9106 9.18481C19.4751 9.18481 19.1221 9.53785 19.1221 9.97334C19.1221 10.4088 19.4751 10.7619 19.9106 10.7619Z" stroke="black"/>
</g></symbol><symbol id="menu-icon-account" viewBox="0 0 34 34"><g fill="none">
<circle cx="17" cy="17" r="16.5" fill="white" stroke="#111111"/>
<path fill-rule="evenodd" clip-rule="evenodd" d="M19.5704 9.26363C19.9898 9.9382 20.0996 10.789 20.0996 11.3643C20.0996 12.4077 19.7231 13.6559 19.0981 14.6292C18.4534 15.6332 17.7178 16.0996 17.0996 16.0996C16.4815 16.0996 15.7458 15.6332 15.1011 14.6292C14.4762 13.6559 14.0996 12.4077 14.0996 11.3643C14.0996 10.789 14.2095 9.9382 14.6289 9.26363C15.0021 8.66322 15.6772 8.09961 17.0996 8.09961C18.5221 8.09961 19.1971 8.66322 19.5704 9.26363ZM17.0996 7.09961C20.6196 7.09961 21.0996 10.0408 21.0996 11.3643C21.0996 13.8643 19.3396 17.0996 17.0996 17.0996C14.8596 17.0996 13.0996 13.8643 13.0996 11.3643C13.0996 10.0408 13.5796 7.09961 17.0996 7.09961Z" fill="#111111"/>
<path fill-rule="evenodd" clip-rule="evenodd" d="M17.0996 17.0996C12.5346 17.0996 9.09961 20.7778 9.09961 25.0996V26.0996H25.0996V25.0996C25.0996 20.7778 21.6647 17.0996 17.0996 17.0996ZM8.0997 27.0996L8.09961 25.0996C8.09961 20.129 12.129 16.0996 17.0996 16.0996C22.0702 16.0996 26.0996 20.129 26.0996 25.0996V27.0996H8.0997Z" fill="#111111"/>
</g></symbol><symbol id="menu-icon-basket" viewBox="0 0 35 34"><g fill="none">
<circle cx="17.6167" cy="17" r="16.5" fill="white" stroke="#111111"/>
<path d="M21.4113 14.0996C21.4267 13.9043 21.4331 13.7209 21.4331 13.5555C21.4331 13.4061 21.4277 13.2539 21.4171 13.0996H13.4491C13.4385 13.2539 13.4331 13.4061 13.4331 13.5555C13.4331 13.7209 13.4395 13.9043 13.455 14.0996H21.4113Z" fill="#111111"/>
<path fill-rule="evenodd" clip-rule="evenodd" d="M21.4113 14.0996C21.4267 13.9043 21.4331 13.7209 21.4331 13.5555C21.4331 13.4061 21.4277 13.2539 21.4171 13.0996C21.3267 11.78 20.8567 10.3076 20.1322 9.13414C19.2989 7.78436 18.3122 7.09961 17.4331 7.09961C16.554 7.09961 15.5674 7.78436 14.734 9.13414C14.0095 10.3076 13.5395 11.78 13.4491 13.0996C13.4385 13.2539 13.4331 13.4061 13.4331 13.5555C13.4331 13.7209 13.4395 13.9043 13.455 14.0996H12.4522H8.43316L8.43311 15.6451C8.43311 21.1455 12.3608 26.0996 17.4331 26.0996C22.5054 26.0996 26.4331 21.1455 26.4331 15.6451V14.0996H22.414H21.4113ZM27.4331 13.0996H22.4192C22.2286 9.92599 20.1038 6.09961 17.4331 6.09961C14.7624 6.09961 12.6376 9.92599 12.447 13.0996H7.43321L7.43311 15.6451C7.43311 21.9712 11.9103 27.0996 17.4331 27.0996C22.956 27.0996 27.4331 21.9712 27.4331 15.6451V13.0996Z" fill="#111111"/>
</g></symbol><symbol id="menu-icon-search" viewBox="0 0 34 34"><g fill="none">
<rect x="0.5" y="0.5" width="33" height="33" rx="16.5" fill="white" stroke="#111111"/>
<path d="M15 6.9502C19.4459 6.9502 23.0498 10.5541 23.0498 15C23.0498 16.6694 22.5401 18.2191 21.6699 19.5049C22.3354 19.4542 23.0956 19.6261 23.8154 19.9424C24.5729 20.2753 25.2901 20.768 25.8105 21.3291C26.1732 21.7201 26.694 22.4141 26.8789 23.2402C27.0647 24.0709 26.91 25.0312 25.9287 25.9414C24.9475 26.8514 23.9784 26.9332 23.1641 26.6855C22.3541 26.4391 21.7005 25.8675 21.3379 25.4766C20.8476 24.9478 20.4317 24.2491 20.1553 23.5176C19.8936 22.8252 19.7574 22.1002 19.8027 21.458C18.4618 22.4569 16.8006 23.0498 15 23.0498C10.5541 23.0498 6.9502 19.4459 6.9502 15C6.9502 10.5541 10.5541 6.9502 15 6.9502ZM22.8838 20.5166C21.989 20.2582 21.3527 20.3648 21.0322 20.6621C20.7118 20.9594 20.5576 21.5855 20.748 22.4971C20.9321 23.3783 21.4008 24.2945 21.9619 24.8994C22.2722 25.2339 22.7879 25.6697 23.373 25.8477C23.6327 25.9266 23.9265 25.9622 24.25 25.8906C24.5735 25.819 24.9307 25.639 25.3164 25.2812C25.702 24.9236 25.9081 24.5808 26.0039 24.2637C26.0996 23.9465 26.0866 23.6506 26.0273 23.3857C25.8938 22.7887 25.4978 22.2418 25.1875 21.9072C24.6265 21.3024 23.7486 20.7664 22.8838 20.5166ZM15 7.84961C11.0512 7.84961 7.84961 11.0512 7.84961 15C7.84961 18.9488 11.0512 22.1504 15 22.1504C18.9488 22.1504 22.1504 18.9488 22.1504 15C22.1504 11.0512 18.9488 7.84961 15 7.84961Z" fill="#111111" stroke="#111111" stroke-width="0.1"/>
</g></symbol><symbol id="menu-icon-wishlist" viewBox="0 0 35 34"><g fill="none">
<circle cx="17.9497" cy="17" r="16.5" fill="white" stroke="#111111"/>
<path fill-rule="evenodd" clip-rule="evenodd" d="M20.4622 26.357C20.5077 26.3335 20.5533 26.3095 20.5988 26.285C22.6247 25.1943 24.5998 23.1064 26.0023 20.6229C28.6902 15.8632 28.2574 10.5297 25.0357 8.71029C22.9395 7.52656 20.1793 8.1219 17.7661 9.99321C15.3529 8.1219 12.5927 7.52656 10.4966 8.71029C7.27478 10.5297 6.84201 15.8632 9.52994 20.6229C10.9325 23.1064 12.9075 25.1943 14.9334 26.285C14.9789 26.3095 15.0245 26.3335 15.0701 26.357C15.9395 26.8053 16.8162 27.0678 17.659 27.0971C17.6946 27.0992 17.7303 27.1 17.7661 27.0996C17.8019 27.1 17.8376 27.0992 17.8732 27.0971C18.716 27.0678 19.5927 26.8053 20.4622 26.357ZM17.1533 10.7835C17.514 11.0631 18.0182 11.0631 18.3789 10.7835C20.6276 9.03968 22.9417 8.67622 24.5439 9.58103C25.7793 10.2787 26.5811 11.7066 26.7384 13.6449C26.8951 15.5763 26.3905 17.9019 25.1315 20.1311C24.1681 21.8372 22.9268 23.3305 21.6134 24.3985C20.2867 25.4772 18.9675 26.0585 17.8385 26.0977L17.8275 26.0981L17.8166 26.0987C17.8029 26.0995 17.7899 26.0998 17.7774 26.0997L17.7661 26.0995L17.7549 26.0997C17.7424 26.0998 17.7293 26.0995 17.7157 26.0987L17.7047 26.0981L17.6937 26.0977C16.5647 26.0585 15.2455 25.4772 13.9189 24.3985C12.6055 23.3305 11.3641 21.8372 10.4007 20.1311C9.14178 17.9019 8.63711 15.5763 8.79384 13.6449C8.95111 11.7066 9.75296 10.2787 10.9883 9.58103C12.5905 8.67622 14.9046 9.03968 17.1533 10.7835Z" fill="#111111"/>
</g></symbol><symbol id="tiktok" viewBox="0 0 30 30"><g fill="none">
<circle cx="15" cy="15" r="14.5" fill="white" stroke="#111111"/>
<path d="M18.3207 7.60865L17.9298 7H15.5642V12.4818L15.5561 17.8364C15.5602 17.8762 15.5642 17.9199 15.5642 17.9597C15.5642 19.3003 14.46 20.3943 13.0979 20.3943C11.7358 20.3943 10.6315 19.3043 10.6315 17.9597C10.6315 16.6191 11.7358 15.5251 13.0979 15.5251C13.38 15.5251 13.654 15.5768 13.9079 15.6643V12.991C13.6459 12.9473 13.3759 12.9234 13.0979 12.9234C10.289 12.9274 8 15.187 8 17.9637C8 20.7404 10.289 23 13.1019 23C15.9148 23 18.2038 20.7404 18.2038 17.9637V11.5947C19.2234 12.6012 20.5412 13.5838 22 13.8981V11.1651C20.4162 10.4729 18.8405 8.42815 18.3207 7.60865Z" stroke="black"/>
</g></symbol><symbol id="youtube" viewBox="0 0 30 30"><g fill="none">
<circle cx="15" cy="15" r="14.5" fill="white" stroke="#111111"/>
<path d="M20.3937 20H9.60628C8.1629 20 7 18.6982 7 17.097V11.903C7 10.2953 8.16874 9 9.60628 9H20.3937C21.8371 9 23 10.3018 23 11.903V17.097C23.0058 18.7047 21.8371 20 20.3937 20Z" stroke="black"/>
<path d="M17.8302 14.4186L13.2922 11.75V17.0873L17.8302 14.4186Z" stroke="black"/>
</g></symbol></svg>