<?xml version="1.0" encoding="UTF-8"?><!DOCTYPE svg PUBLIC "-//W3C//DTD SVG 1.1//EN" "http://www.w3.org/Graphics/SVG/1.1/DTD/svg11.dtd"><svg xmlns="http://www.w3.org/2000/svg" xmlns:xlink="http://www.w3.org/1999/xlink"><symbol id="menu-icon-account" viewBox="0 0 34 34"><g fill="none">
<circle cx="17" cy="17" r="16.5" fill="white" stroke="#111111"/>
<path fill-rule="evenodd" clip-rule="evenodd" d="M19.5704 9.26363C19.9898 9.9382 20.0996 10.789 20.0996 11.3643C20.0996 12.4077 19.7231 13.6559 19.0981 14.6292C18.4534 15.6332 17.7178 16.0996 17.0996 16.0996C16.4815 16.0996 15.7458 15.6332 15.1011 14.6292C14.4762 13.6559 14.0996 12.4077 14.0996 11.3643C14.0996 10.789 14.2095 9.9382 14.6289 9.26363C15.0021 8.66322 15.6772 8.09961 17.0996 8.09961C18.5221 8.09961 19.1971 8.66322 19.5704 9.26363ZM17.0996 7.09961C20.6196 7.09961 21.0996 10.0408 21.0996 11.3643C21.0996 13.8643 19.3396 17.0996 17.0996 17.0996C14.8596 17.0996 13.0996 13.8643 13.0996 11.3643C13.0996 10.0408 13.5796 7.09961 17.0996 7.09961Z" fill="#111111"/>
<path fill-rule="evenodd" clip-rule="evenodd" d="M17.0996 17.0996C12.5346 17.0996 9.09961 20.7778 9.09961 25.0996V26.0996H25.0996V25.0996C25.0996 20.7778 21.6647 17.0996 17.0996 17.0996ZM8.0997 27.0996L8.09961 25.0996C8.09961 20.129 12.129 16.0996 17.0996 16.0996C22.0702 16.0996 26.0996 20.129 26.0996 25.0996V27.0996H8.0997Z" fill="#111111"/>
</g></symbol><symbol id="menu-icon-basket" viewBox="0 0 35 34"><g fill="none">
<circle cx="17.6167" cy="17" r="16.5" fill="white" stroke="#111111"/>
<path d="M21.4113 14.0996C21.4267 13.9043 21.4331 13.7209 21.4331 13.5555C21.4331 13.4061 21.4277 13.2539 21.4171 13.0996H13.4491C13.4385 13.2539 13.4331 13.4061 13.4331 13.5555C13.4331 13.7209 13.4395 13.9043 13.455 14.0996H21.4113Z" fill="#111111"/>
<path fill-rule="evenodd" clip-rule="evenodd" d="M21.4113 14.0996C21.4267 13.9043 21.4331 13.7209 21.4331 13.5555C21.4331 13.4061 21.4277 13.2539 21.4171 13.0996C21.3267 11.78 20.8567 10.3076 20.1322 9.13414C19.2989 7.78436 18.3122 7.09961 17.4331 7.09961C16.554 7.09961 15.5674 7.78436 14.734 9.13414C14.0095 10.3076 13.5395 11.78 13.4491 13.0996C13.4385 13.2539 13.4331 13.4061 13.4331 13.5555C13.4331 13.7209 13.4395 13.9043 13.455 14.0996H12.4522H8.43316L8.43311 15.6451C8.43311 21.1455 12.3608 26.0996 17.4331 26.0996C22.5054 26.0996 26.4331 21.1455 26.4331 15.6451V14.0996H22.414H21.4113ZM27.4331 13.0996H22.4192C22.2286 9.92599 20.1038 6.09961 17.4331 6.09961C14.7624 6.09961 12.6376 9.92599 12.447 13.0996H7.43321L7.43311 15.6451C7.43311 21.9712 11.9103 27.0996 17.4331 27.0996C22.956 27.0996 27.4331 21.9712 27.4331 15.6451V13.0996Z" fill="#111111"/>
</g></symbol><symbol id="menu-icon-search" viewBox="0 0 34 34"><g fill="none">
<rect x="0.5" y="0.5" width="33" height="33" rx="16.5" fill="white" stroke="#111111"/>
<path d="M15 6.9502C19.4459 6.9502 23.0498 10.5541 23.0498 15C23.0498 16.6694 22.5401 18.2191 21.6699 19.5049C22.3354 19.4542 23.0956 19.6261 23.8154 19.9424C24.5729 20.2753 25.2901 20.768 25.8105 21.3291C26.1732 21.7201 26.694 22.4141 26.8789 23.2402C27.0647 24.0709 26.91 25.0312 25.9287 25.9414C24.9475 26.8514 23.9784 26.9332 23.1641 26.6855C22.3541 26.4391 21.7005 25.8675 21.3379 25.4766C20.8476 24.9478 20.4317 24.2491 20.1553 23.5176C19.8936 22.8252 19.7574 22.1002 19.8027 21.458C18.4618 22.4569 16.8006 23.0498 15 23.0498C10.5541 23.0498 6.9502 19.4459 6.9502 15C6.9502 10.5541 10.5541 6.9502 15 6.9502ZM22.8838 20.5166C21.989 20.2582 21.3527 20.3648 21.0322 20.6621C20.7118 20.9594 20.5576 21.5855 20.748 22.4971C20.9321 23.3783 21.4008 24.2945 21.9619 24.8994C22.2722 25.2339 22.7879 25.6697 23.373 25.8477C23.6327 25.9266 23.9265 25.9622 24.25 25.8906C24.5735 25.819 24.9307 25.639 25.3164 25.2812C25.702 24.9236 25.9081 24.5808 26.0039 24.2637C26.0996 23.9465 26.0866 23.6506 26.0273 23.3857C25.8938 22.7887 25.4978 22.2418 25.1875 21.9072C24.6265 21.3024 23.7486 20.7664 22.8838 20.5166ZM15 7.84961C11.0512 7.84961 7.84961 11.0512 7.84961 15C7.84961 18.9488 11.0512 22.1504 15 22.1504C18.9488 22.1504 22.1504 18.9488 22.1504 15C22.1504 11.0512 18.9488 7.84961 15 7.84961Z" fill="#111111" stroke="#111111" stroke-width="0.1"/>
</g></symbol><symbol id="menu-icon-wishlist" viewBox="0 0 35 34"><g fill="none">
<circle cx="17.9497" cy="17" r="16.5" fill="white" stroke="#111111"/>
<path fill-rule="evenodd" clip-rule="evenodd" d="M20.4622 26.357C20.5077 26.3335 20.5533 26.3095 20.5988 26.285C22.6247 25.1943 24.5998 23.1064 26.0023 20.6229C28.6902 15.8632 28.2574 10.5297 25.0357 8.71029C22.9395 7.52656 20.1793 8.1219 17.7661 9.99321C15.3529 8.1219 12.5927 7.52656 10.4966 8.71029C7.27478 10.5297 6.84201 15.8632 9.52994 20.6229C10.9325 23.1064 12.9075 25.1943 14.9334 26.285C14.9789 26.3095 15.0245 26.3335 15.0701 26.357C15.9395 26.8053 16.8162 27.0678 17.659 27.0971C17.6946 27.0992 17.7303 27.1 17.7661 27.0996C17.8019 27.1 17.8376 27.0992 17.8732 27.0971C18.716 27.0678 19.5927 26.8053 20.4622 26.357ZM17.1533 10.7835C17.514 11.0631 18.0182 11.0631 18.3789 10.7835C20.6276 9.03968 22.9417 8.67622 24.5439 9.58103C25.7793 10.2787 26.5811 11.7066 26.7384 13.6449C26.8951 15.5763 26.3905 17.9019 25.1315 20.1311C24.1681 21.8372 22.9268 23.3305 21.6134 24.3985C20.2867 25.4772 18.9675 26.0585 17.8385 26.0977L17.8275 26.0981L17.8166 26.0987C17.8029 26.0995 17.7899 26.0998 17.7774 26.0997L17.7661 26.0995L17.7549 26.0997C17.7424 26.0998 17.7293 26.0995 17.7157 26.0987L17.7047 26.0981L17.6937 26.0977C16.5647 26.0585 15.2455 25.4772 13.9189 24.3985C12.6055 23.3305 11.3641 21.8372 10.4007 20.1311C9.14178 17.9019 8.63711 15.5763 8.79384 13.6449C8.95111 11.7066 9.75296 10.2787 10.9883 9.58103C12.5905 8.67622 14.9046 9.03968 17.1533 10.7835Z" fill="#111111"/>
</g></symbol></svg>